<?xml version="1.0" encoding="UTF-8"?>
<svg width="512" height="512" version="1.1" viewBox="0 0 512 512" xmlns="http://www.w3.org/2000/svg">
 <path d="m485.92 173.56-224-96c-3.36-1.44-7.2-1.44-10.56 0l-224 96c-4.8 2.08-7.36 7.04-6.4 12.16 0.96 5.12 5.12 8.96 10.24 9.28l224 16c0.64 0 1.28 0 1.76-0.16 0.64 0.16 1.28 0.16 1.76 0.16l224-16c5.12-0.32 9.28-4.16 10.24-9.28 0.96-5.12-1.6-10.08-6.4-12.16zm-229.12-66.88 173.44 74.24-173.44 12.32-173.44-12.32z" fill="#000"/>
 <path d="m384 214.24v101.76c0 3.84-2.24 7.36-5.76 8.96-20.8 9.6-65.44 32-122.24 32s-101.44-22.4-122.24-32c-3.52-1.6-5.76-5.12-5.76-8.96v-101.76c0-5.76-4.48-10.24-10.24-10.24s-10.24 4.48-10.24 10.24v101.76c0 11.52 6.72 22.08 17.28 26.88 22.4 10.24 70.4 33.92 131.2 33.92s108.8-23.68 131.2-33.92c10.56-4.8 17.28-15.36 17.28-26.88v-101.76c0-5.76-4.48-10.24-10.24-10.24s-10.24 4.48-10.24 10.24z" fill="#000"/>
 <path d="m437.76 246.88c-5.76 0-10.24 4.48-10.24 10.24v44.8c0 3.84-2.24 7.36-5.76 8.96-8.32 3.84-19.84 8.32-32.64 12.48-5.12 1.92-8 7.68-6.08 12.8 1.6 4.16 5.44 6.72 9.6 6.72 1.12 0 2.24-0.16 3.2-0.64 13.76-4.48 26.24-9.6 35.2-13.76 10.56-4.8 17.28-15.36 17.28-26.88v-44.48c-0.64-5.76-5.12-10.24-10.56-10.24z" fill="#000"/>
</svg> 